<?xml version="1.0" encoding="iso-8859-1"?>
<!-- Uploaded to: SVG Repo, www.svgrepo.com, Generator: SVG Repo Mixer Tools -->
<svg version="1.1" id="Layer_1" xmlns="http://www.w3.org/2000/svg" xmlns:xlink="http://www.w3.org/1999/xlink" 
	 viewBox="0 0 512.001 512.001" xml:space="preserve">
<rect x="53.1" y="185.021" transform="matrix(-0.7071 -0.7071 0.7071 -0.7071 260.7772 629.5504)" style="fill:#A92300;" width="415.345" height="151.49"/>
<rect x="26.313" y="249.682" transform="matrix(-0.7071 -0.7071 0.7071 -0.7071 196.1069 656.3384)" style="fill:#881C00;" width="415.345" height="75.745"/>
<path style="fill:#ECEDEF;" d="M439.727,489.562l49.835-49.835l-24.122-78.193c-0.936-3.034-2.698-5.914-5.072-8.287l0,0
	l-107.12,107.12l0.001,0.001c2.372,2.372,5.252,4.135,8.286,5.07L439.727,489.562z"/>
<path style="fill:#A92300;" d="M487.972,504.445c5.261,1.622,10.432,0.6,13.752-2.721c3.32-3.32,4.344-8.491,2.721-13.752
	l-14.884-48.245l-49.835,49.835L487.972,504.445z"/>
<path style="fill:#C9C9CB;" d="M361.534,465.439l78.193,24.123l24.918-24.917l-57.837-57.837l-53.56,53.56l0.001,0.001
	C355.621,462.742,358.501,464.503,361.534,465.439z"/>
<path style="fill:#881C00;" d="M464.645,464.644l-24.918,24.917l48.245,14.884c5.261,1.622,10.432,0.6,13.752-2.721L464.645,464.644
	z"/>
<rect x="26.594" y="85.982" transform="matrix(0.7071 -0.7071 0.7071 0.7071 -42.4 102.3433)" style="fill:#DFDFE1;" width="151.49" height="32.741"/>
<rect x="37.671" y="112.702" transform="matrix(0.7071 -0.7071 0.7071 0.7071 -69.1187 91.2788)" style="fill:#C9C9CB;" width="75.906" height="32.741"/>
<path style="fill:#FF9711;" d="M28.984,136.105c-29.581-29.581-29.581-77.541,0-107.12s77.541-29.581,107.12,0l8.228,8.228
	l-107.12,107.12L28.984,136.105z"/>
<path style="fill:#CC7300;" d="M90.772,90.771L28.984,28.984l0,0c-29.581,29.581-29.581,77.541,0,107.12l8.228,8.228L90.772,90.771z
	"/>
<path style="fill:#C9C9CB;" d="M508.491,34.588L477.413,3.51c-4.68-4.68-12.268-4.68-16.947,0l-51.826,51.825l48.025,48.025
	l51.825-51.825C513.17,46.855,513.17,39.268,508.491,34.588z"/>
<path style="fill:#A8A8AA;" d="M508.491,34.589L492.952,19.05l-60.3,60.3l24.013,24.013l51.825-51.825
	C513.17,46.855,513.17,39.268,508.491,34.589z"/>
<path style="fill:#124D7A;" d="M485.614,120.909l-94.523-94.523c-6.735-6.735-17.655-6.735-24.39,0L52.182,340.905
	c-1.896,1.896-3.323,4.207-4.17,6.75L0.883,489.308c-2.06,6.196-0.447,13.023,4.17,17.64c4.616,4.616,11.445,6.231,17.64,4.17
	l141.652-47.13c2.543-0.847,4.854-2.274,6.75-4.17l314.519-314.519C492.349,138.563,492.349,127.644,485.614,120.909z"/>
<path style="fill:#09406B;" d="M485.614,120.909l-47.261-47.261l-433.3,433.3c4.616,4.616,11.445,6.23,17.64,4.17l141.652-47.13
	c2.543-0.847,4.854-2.274,6.75-4.17L485.614,145.3C492.349,138.563,492.349,127.644,485.614,120.909z"/>
<path style="fill:#C9C9CB;" d="M316.436,360.789c-6.735-6.735-6.735-17.655,0-24.39l135.308-135.308L322.606,71.956
	c-6.735-6.735-6.735-17.654,0-24.39c6.735-6.735,17.655-6.735,24.39,0l141.331,141.331c6.735,6.735,6.735,17.654,0,24.39
	L340.825,360.789C334.091,367.525,323.171,367.525,316.436,360.789z"/>
<path style="fill:#ECEDEF;" d="M52.906,340.182l-0.723,0.723c-1.896,1.896-3.323,4.207-4.17,6.75L0.883,489.308
	c-2.06,6.196-0.447,13.023,4.17,17.64c4.616,4.616,11.445,6.231,17.64,4.17l141.652-47.13c2.543-0.847,4.854-2.274,6.75-4.17
	l0.723-0.723L52.906,340.182z"/>
<path style="fill:#C9C9CB;" d="M112.363,399.638L5.053,506.949c4.616,4.616,11.445,6.23,17.64,4.17l141.652-47.13
	c2.543-0.847,4.854-2.274,6.75-4.17l0.723-0.723L112.363,399.638z"/>
<rect x="287.672" y="126.701" transform="matrix(-0.7071 -0.7071 0.7071 -0.7071 535.6458 502.0968)" style="fill:#083A61;" width="168.277" height="26.822"/>
</svg>